<svg width="29" height="30" viewBox="0 0 29 30" fill="none" xmlns="http://www.w3.org/2000/svg">
<path d="M21.75 26.2083C21.75 23.6446 20.7316 21.1858 18.9187 19.373C17.1058 17.5601 14.6471 16.5417 12.0833 16.5417C9.51958 16.5417 7.06082 17.5601 5.24797 19.373C3.43512 21.1858 2.41667 23.6446 2.41667 26.2083" stroke="white" stroke-width="2" stroke-linecap="round" stroke-linejoin="round"/>
<path d="M12.0833 16.5416C15.4201 16.5416 18.125 13.8367 18.125 10.5C18.125 7.16326 15.4201 4.45831 12.0833 4.45831C8.74661 4.45831 6.04167 7.16326 6.04167 10.5C6.04167 13.8367 8.74661 16.5416 12.0833 16.5416Z" stroke="white" stroke-width="2" stroke-linecap="round" stroke-linejoin="round"/>
<path d="M26.5833 25C26.5833 20.9279 24.1667 17.1458 21.75 15.3333C22.5444 14.7373 23.1796 13.9547 23.5994 13.0547C24.0193 12.1547 24.2108 11.1651 24.157 10.1735C24.1033 9.18184 23.8059 8.21874 23.2912 7.36942C22.7765 6.5201 22.0604 5.81075 21.2063 5.30414" stroke="white" stroke-width="2" stroke-linecap="round" stroke-linejoin="round"/>
</svg>
