<svg width="29" height="30" viewBox="0 0 29 30" fill="none" xmlns="http://www.w3.org/2000/svg">
<path d="M6.04167 22.5833V27.1339L7.87229 26.0355L13.6264 22.5833H19.3333C20.6661 22.5833 21.75 21.4994 21.75 20.1666V10.5C21.75 9.16719 20.6661 8.08331 19.3333 8.08331H4.83333C3.50054 8.08331 2.41667 9.16719 2.41667 10.5V20.1666C2.41667 21.4994 3.50054 22.5833 4.83333 22.5833H6.04167ZM4.83333 10.5H19.3333V20.1666H12.957L8.45833 22.8661V20.1666H4.83333V10.5Z" fill="white"/>
<path d="M24.1667 3.24997H9.66667C8.33387 3.24997 7.25 4.33384 7.25 5.66664H21.75C23.0828 5.66664 24.1667 6.75051 24.1667 8.0833V17.75C25.4995 17.75 26.5833 16.6661 26.5833 15.3333V5.66664C26.5833 4.33384 25.4995 3.24997 24.1667 3.24997Z" fill="white"/>
</svg>
