<svg width="29" height="30" viewBox="0 0 29 30" fill="none" xmlns="http://www.w3.org/2000/svg">
<path d="M18.125 11.7083V13.5208H12.6875C11.7261 13.5208 10.8041 13.9027 10.1242 14.5826C9.44442 15.2624 9.0625 16.1844 9.0625 17.1458V20.7708C9.0625 21.7322 9.44442 22.6543 10.1242 23.3341C10.8041 24.0139 11.7261 24.3958 12.6875 24.3958H21.75C22.7114 24.3958 23.6334 24.0139 24.3133 23.3341C24.9931 22.6543 25.375 21.7322 25.375 20.7708V17.1458C25.375 16.5095 25.2075 15.8844 24.8893 15.3334C24.5712 14.7823 24.1136 14.3247 23.5625 14.0066V12.0164C25.6741 12.7632 27.1875 14.7769 27.1875 17.144V20.769C27.1875 22.2111 26.6146 23.5942 25.5949 24.6139C24.5752 25.6336 23.1921 26.2065 21.75 26.2065H12.6875C11.2454 26.2065 9.86234 25.6336 8.84261 24.6139C7.82288 23.5942 7.25 22.2111 7.25 20.769V17.1458C7.25 15.7037 7.82288 14.3206 8.84261 13.3009C9.86234 12.2812 11.2454 11.7083 12.6875 11.7083H18.125Z" fill="white"/>
<path d="M10.875 18.9583V17.1458H16.3125C17.2739 17.1458 18.1959 16.7639 18.8758 16.0841C19.5556 15.4043 19.9375 14.4822 19.9375 13.5208V9.89581C19.9375 8.9344 19.5556 8.01237 18.8758 7.33255C18.1959 6.65273 17.2739 6.27081 16.3125 6.27081H7.25C6.28859 6.27081 5.36656 6.65273 4.68674 7.33255C4.00692 8.01237 3.625 8.9344 3.625 9.89581V13.5208C3.62502 14.1571 3.79252 14.7822 4.11068 15.3333C4.42884 15.8843 4.88644 16.3419 5.4375 16.6601V18.6502C4.37704 18.275 3.45899 17.5802 2.80979 16.6616C2.16058 15.743 1.81216 14.6457 1.8125 13.5208V9.89581C1.8125 8.4537 2.38538 7.07065 3.40511 6.05092C4.42484 5.03119 5.80789 4.45831 7.25 4.45831H16.3125C17.7546 4.45831 19.1377 5.03119 20.1574 6.05092C21.1771 7.07065 21.75 8.4537 21.75 9.89581V13.5208C21.75 14.9629 21.1771 16.346 20.1574 17.3657C19.1377 18.3854 17.7546 18.9583 16.3125 18.9583H10.875Z" fill="white"/>
</svg>
