<svg width="29" height="30" viewBox="0 0 29 30" fill="none" xmlns="http://www.w3.org/2000/svg">
<path d="M14.4396 21.9167C14.8625 21.9167 15.2202 21.7705 15.5126 21.4781C15.805 21.1857 15.9508 20.8284 15.95 20.4063C15.9492 19.9842 15.8034 19.6265 15.5126 19.3333C15.2218 19.0401 14.8641 18.8943 14.4396 18.8959C14.0151 18.8975 13.6578 19.0437 13.3678 19.3345C13.0778 19.6253 12.9316 19.9826 12.9292 20.4063C12.9267 20.83 13.073 21.1877 13.3678 21.4793C13.6626 21.7709 14.0199 21.9167 14.4396 21.9167ZM13.3521 17.2646H15.5875C15.5875 16.6 15.6632 16.0764 15.8147 15.6938C15.9661 15.3112 16.3939 14.7875 17.0979 14.123C17.6215 13.5994 18.0344 13.1007 18.3365 12.627C18.6385 12.1534 18.7896 11.5847 18.7896 10.9209C18.7896 9.7931 18.3767 8.92713 17.551 8.32296C16.7253 7.7188 15.7486 7.41671 14.6208 7.41671C13.4729 7.41671 12.5417 7.7188 11.8272 8.32296C11.1126 8.92713 10.614 9.65213 10.3312 10.498L12.325 11.2834C12.4257 10.9209 12.6525 10.5282 13.0053 10.1053C13.3581 9.68234 13.8966 9.47088 14.6208 9.47088C15.2653 9.47088 15.7486 9.6473 16.0708 10.0001C16.3931 10.353 16.5542 10.7404 16.5542 11.1625C16.5542 11.5653 16.4333 11.9431 16.1917 12.296C15.95 12.6488 15.6479 12.9759 15.2854 13.2771C14.3993 14.0625 13.8556 14.6566 13.6542 15.0594C13.4528 15.4622 13.3521 16.1973 13.3521 17.2646ZM14.5 26.75C12.8285 26.75 11.2576 26.4331 9.7875 25.7991C8.31736 25.1651 7.03854 24.304 5.95104 23.2157C4.86354 22.1274 4.0028 20.8485 3.36883 19.3792C2.73486 17.9099 2.41747 16.339 2.41667 14.6667C2.41586 12.9944 2.73325 11.4235 3.36883 9.95421C4.00442 8.48488 4.86515 7.20606 5.95104 6.11776C7.03693 5.02945 8.31575 4.16871 9.7875 3.53555C11.2592 2.90238 12.8301 2.58499 14.5 2.58338C16.1699 2.58177 17.7407 2.89916 19.2125 3.53555C20.6842 4.17194 21.9631 5.03267 23.049 6.11776C24.1348 7.20284 24.996 8.48166 25.6324 9.95421C26.2688 11.4268 26.5858 12.9976 26.5833 14.6667C26.5809 16.3358 26.2635 17.9067 25.6312 19.3792C24.9988 20.8518 24.1381 22.1306 23.049 23.2157C21.9598 24.3008 20.681 25.1619 19.2125 25.7991C17.744 26.4363 16.1731 26.7533 14.5 26.75ZM14.5 24.3334C17.1986 24.3334 19.4844 23.3969 21.3573 21.524C23.2302 19.6511 24.1667 17.3653 24.1667 14.6667C24.1667 11.9681 23.2302 9.68234 21.3573 7.80942C19.4844 5.93651 17.1986 5.00005 14.5 5.00005C11.8014 5.00005 9.51562 5.93651 7.64271 7.80942C5.76979 9.68234 4.83333 11.9681 4.83333 14.6667C4.83333 17.3653 5.76979 19.6511 7.64271 21.524C9.51562 23.3969 11.8014 24.3334 14.5 24.3334Z" fill="white"/>
</svg>
