<svg width="29" height="30" viewBox="0 0 29 30" fill="none" xmlns="http://www.w3.org/2000/svg">
<path d="M12.476 5.38306C12.9908 3.26123 16.0092 3.26123 16.524 5.38306C16.6012 5.70182 16.7526 5.99784 16.9659 6.24702C17.1791 6.4962 17.4482 6.69151 17.7512 6.81705C18.0542 6.94258 18.3826 6.9948 18.7096 6.96945C19.0366 6.94409 19.353 6.84189 19.633 6.67115C21.4975 5.53531 23.6326 7.66923 22.4968 9.5349C22.3263 9.81481 22.2242 10.131 22.1989 10.4578C22.1736 10.7846 22.2258 11.1127 22.3512 11.4155C22.4766 11.7183 22.6716 11.9873 22.9205 12.2005C23.1694 12.4138 23.4652 12.5653 23.7836 12.6427C25.9055 13.1575 25.9055 16.1759 23.7836 16.6906C23.4649 16.7679 23.1689 16.9193 22.9197 17.1325C22.6705 17.3458 22.4752 17.6149 22.3496 17.9179C22.2241 18.2209 22.1719 18.5493 22.1972 18.8763C22.2226 19.2033 22.3248 19.5197 22.4955 19.7997C23.6314 21.6641 21.4975 23.7993 19.6318 22.6634C19.3519 22.4929 19.0357 22.3909 18.7089 22.3656C18.3821 22.3403 18.054 22.3925 17.7512 22.5179C17.4483 22.6433 17.1794 22.8383 16.9661 23.0872C16.7529 23.3361 16.6014 23.6318 16.524 23.9503C16.0092 26.0721 12.9908 26.0721 12.476 23.9503C12.3988 23.6316 12.2474 23.3355 12.0341 23.0864C11.8209 22.8372 11.5518 22.6419 11.2488 22.5163C10.9458 22.3908 10.6174 22.3386 10.2904 22.3639C9.96343 22.3893 9.64703 22.4915 9.367 22.6622C7.50254 23.7981 5.36742 21.6641 6.50325 19.7985C6.67375 19.5186 6.77579 19.2024 6.80108 18.8756C6.82638 18.5488 6.77421 18.2207 6.64882 17.9179C6.52343 17.615 6.32836 17.3461 6.07945 17.1328C5.83055 16.9196 5.53485 16.7681 5.21638 16.6906C3.09454 16.1759 3.09454 13.1575 5.21638 12.6427C5.53513 12.5655 5.83115 12.4141 6.08033 12.2008C6.32952 11.9876 6.52482 11.7185 6.65036 11.4155C6.7759 11.1125 6.82811 10.7841 6.80276 10.4571C6.77741 10.1301 6.6752 9.81372 6.50446 9.53369C5.36862 7.66923 7.50254 5.5341 9.36821 6.66994C10.5765 7.4046 12.1425 6.75452 12.476 5.38306Z" stroke="white" stroke-width="2" stroke-linecap="round" stroke-linejoin="round"/>
<path d="M10.875 14.6667C10.875 15.6281 11.2569 16.5501 11.9367 17.2299C12.6166 17.9098 13.5386 18.2917 14.5 18.2917C15.4614 18.2917 16.3834 17.9098 17.0633 17.2299C17.7431 16.5501 18.125 15.6281 18.125 14.6667C18.125 13.7053 17.7431 12.7832 17.0633 12.1034C16.3834 11.4236 15.4614 11.0417 14.5 11.0417C13.5386 11.0417 12.6166 11.4236 11.9367 12.1034C11.2569 12.7832 10.875 13.7053 10.875 14.6667Z" stroke="white" stroke-width="2" stroke-linecap="round" stroke-linejoin="round"/>
</svg>
