<svg width="55" height="55" viewBox="0 0 55 55" fill="none" xmlns="http://www.w3.org/2000/svg">
<path d="M20.625 10.3125H18.3333C12.9319 10.3125 10.23 10.3125 8.5525 11.99C6.875 13.6675 6.875 16.3694 6.875 21.7709V33.2292C6.875 38.6307 6.875 41.3302 8.5525 43.01C10.23 44.6898 12.9319 44.6875 18.3333 44.6875H20.625M20.625 14.8409C20.625 9.58606 20.625 6.95752 22.2452 5.52064C23.8654 4.08377 26.3427 4.5146 31.2973 5.37856L36.6369 6.31127C42.1231 7.2669 44.8663 7.74585 46.4956 9.75794C48.125 11.7723 48.125 14.6827 48.125 20.5059V34.4965C48.125 40.3173 48.125 43.2277 46.4979 45.2421C44.8663 47.2542 42.1208 47.7332 36.6346 48.6911L31.2996 49.6215C26.345 50.4855 23.8677 50.9163 22.2475 49.4794C20.6273 48.0425 20.625 45.414 20.625 40.1592V14.8409Z" stroke="white" stroke-width="1.5"/>
<path d="M27.5 25.2083V29.7916" stroke="white" stroke-width="1.5" stroke-linecap="round"/>
</svg>
