<svg width="29" height="30" viewBox="0 0 29 30" fill="none" xmlns="http://www.w3.org/2000/svg">
<path d="M10.875 18.9583C10.636 18.9583 10.4024 19.0292 10.2037 19.1619C10.005 19.2947 9.8501 19.4834 9.75864 19.7042C9.66719 19.925 9.64326 20.168 9.68988 20.4024C9.73651 20.6368 9.85159 20.8521 10.0206 21.0211C10.1896 21.19 10.4049 21.3051 10.6393 21.3518C10.8737 21.3984 11.1166 21.3744 11.3374 21.283C11.5582 21.1915 11.7469 21.0367 11.8797 20.8379C12.0125 20.6392 12.0833 20.4056 12.0833 20.1666C12.0833 19.8462 11.956 19.5388 11.7294 19.3122C11.5028 19.0856 11.1955 18.9583 10.875 18.9583ZM2.41667 17.75C2.0962 17.75 1.78885 17.8773 1.56224 18.1039C1.33564 18.3305 1.20833 18.6378 1.20833 18.9583V21.375C1.20833 21.6954 1.33564 22.0028 1.56224 22.2294C1.78885 22.456 2.0962 22.5833 2.41667 22.5833C2.73714 22.5833 3.04448 22.456 3.27109 22.2294C3.49769 22.0028 3.625 21.6954 3.625 21.375V18.9583C3.625 18.6378 3.49769 18.3305 3.27109 18.1039C3.04448 17.8773 2.73714 17.75 2.41667 17.75ZM26.5833 17.75C26.2629 17.75 25.9555 17.8773 25.7289 18.1039C25.5023 18.3305 25.375 18.6378 25.375 18.9583V21.375C25.375 21.6954 25.5023 22.0028 25.7289 22.2294C25.9555 22.456 26.2629 22.5833 26.5833 22.5833C26.9038 22.5833 27.2111 22.456 27.4378 22.2294C27.6644 22.0028 27.7917 21.6954 27.7917 21.375V18.9583C27.7917 18.6378 27.6644 18.3305 27.4378 18.1039C27.2111 17.8773 26.9038 17.75 26.5833 17.75ZM20.5417 9.29164H15.7083V7.74497C16.0736 7.5341 16.3773 7.23132 16.5893 6.86672C16.8012 6.50211 16.9141 6.08838 16.9167 5.66664C16.9167 5.0257 16.6621 4.41101 16.2088 3.95779C15.7556 3.50458 15.1409 3.24997 14.5 3.24997C13.8591 3.24997 13.2444 3.50458 12.7912 3.95779C12.3379 4.41101 12.0833 5.0257 12.0833 5.66664C12.0859 6.08838 12.1987 6.50211 12.4107 6.86672C12.6227 7.23132 12.9264 7.5341 13.2917 7.74497V9.29164H8.45833C7.49692 9.29164 6.57489 9.67355 5.89507 10.3534C5.21525 11.0332 4.83333 11.9552 4.83333 12.9166V23.7916C4.83333 24.753 5.21525 25.6751 5.89507 26.3549C6.57489 27.0347 7.49692 27.4166 8.45833 27.4166H20.5417C21.5031 27.4166 22.4251 27.0347 23.1049 26.3549C23.7847 25.6751 24.1667 24.753 24.1667 23.7916V12.9166C24.1667 11.9552 23.7847 11.0332 23.1049 10.3534C22.4251 9.67355 21.5031 9.29164 20.5417 9.29164ZM16.5783 11.7083L15.9742 14.125H13.0258L12.4217 11.7083H16.5783ZM21.75 23.7916C21.75 24.1121 21.6227 24.4195 21.3961 24.6461C21.1695 24.8727 20.8621 25 20.5417 25H8.45833C8.13786 25 7.83052 24.8727 7.60391 24.6461C7.37731 24.4195 7.25 24.1121 7.25 23.7916V12.9166C7.25 12.5962 7.37731 12.2888 7.60391 12.0622C7.83052 11.8356 8.13786 11.7083 8.45833 11.7083H9.9325L10.875 15.6233C10.9412 15.8914 11.0971 16.1288 11.317 16.2958C11.5369 16.4629 11.8073 16.5497 12.0833 16.5416H16.9167C17.1927 16.5497 17.4631 16.4629 17.683 16.2958C17.9029 16.1288 18.0588 15.8914 18.125 15.6233L19.0675 11.7083H20.5417C20.8621 11.7083 21.1695 11.8356 21.3961 12.0622C21.6227 12.2888 21.75 12.5962 21.75 12.9166V23.7916ZM18.125 18.9583C17.886 18.9583 17.6524 19.0292 17.4537 19.1619C17.255 19.2947 17.1001 19.4834 17.0086 19.7042C16.9172 19.925 16.8933 20.168 16.9399 20.4024C16.9865 20.6368 17.1016 20.8521 17.2706 21.0211C17.4396 21.19 17.6549 21.3051 17.8893 21.3518C18.1237 21.3984 18.3666 21.3744 18.5874 21.283C18.8082 21.1915 18.9969 21.0367 19.1297 20.8379C19.2625 20.6392 19.3333 20.4056 19.3333 20.1666C19.3333 19.8462 19.206 19.5388 18.9794 19.3122C18.7528 19.0856 18.4455 18.9583 18.125 18.9583Z" fill="white"/>
</svg>
