<svg width="348" height="50" viewBox="0 0 348 50" fill="none" xmlns="http://www.w3.org/2000/svg">
<path d="M0.0710003 7.393C0.0710003 5.139 0.83 3.368 2.348 2.08C3.866 0.745997 5.913 0.0789965 8.489 0.0789965L31.811 36.511L32.501 35.959L29.672 31.267V0.0789965C32.662 0.0789965 34.916 0.653997 36.434 1.804C37.998 2.954 38.78 4.656 38.78 6.91V43.342C38.78 45.044 38.044 46.516 36.572 47.758C35.146 49 33.49 49.621 31.604 49.621L7.04 11.188L6.35 11.809L9.179 16.501V42.79C9.179 45.044 8.397 46.746 6.833 47.896C5.315 49.046 3.061 49.621 0.0710003 49.621V7.393ZM46.8347 7.048C46.8347 4.794 47.6397 3.069 49.2497 1.873C50.8597 0.676997 53.1367 0.0789965 56.0807 0.0789965V22.228L79.1957 0.0789965C80.3457 0.906997 81.2657 1.85 81.9557 2.908C82.6917 3.92 83.0597 4.817 83.0597 5.599C83.0597 6.289 82.8067 6.979 82.3007 7.669C81.8407 8.313 81.1277 9.095 80.1617 10.015L66.3617 23.056L85.3367 46.723C83.9107 48.655 82.0477 49.621 79.7477 49.621C77.5397 49.621 75.7687 48.793 74.4347 47.137L60.0137 28.852L56.0807 32.716V43.066C56.0807 45.32 55.3447 46.976 53.8727 48.034C52.4007 49.092 50.0547 49.621 46.8347 49.621V7.048ZM106.96 49.621C104.66 49.621 102.751 49.115 101.233 48.103C99.7605 47.045 98.7715 45.55 98.2655 43.618L87.4325 1.114C88.5365 0.423998 89.9625 0.0789965 91.7105 0.0789965C93.4125 0.0789965 94.8155 0.492997 95.9195 1.321C97.0235 2.103 97.7595 3.23 98.1275 4.702L103.924 30.853L102.544 36.166L103.165 36.373L112.549 3.184C112.825 2.218 113.308 1.459 113.998 0.906998C114.734 0.354997 115.608 0.0789965 116.62 0.0789965C117.632 0.0789965 118.506 0.354997 119.242 0.906998C119.978 1.459 120.484 2.218 120.76 3.184L128.281 31.474L126.97 37.063L127.729 37.27L135.181 4.702C135.503 3.23 136.193 2.103 137.251 1.321C138.355 0.492997 139.781 0.0789965 141.529 0.0789965C143.231 0.0789965 144.68 0.423998 145.876 1.114L134.974 43.618C134.468 45.55 133.456 47.045 131.938 48.103C130.466 49.115 128.58 49.621 126.28 49.621L115.792 11.257L115.171 11.464L116.275 15.535L106.96 49.621ZM170.28 4.909C170.28 3.759 170.717 2.77 171.591 1.942C172.511 1.114 173.615 0.699997 174.903 0.699997H206.16C206.16 3.46 205.677 5.484 204.711 6.772C203.791 8.014 202.273 8.635 200.157 8.635H179.526V20.296H197.88C197.88 23.056 197.397 25.08 196.431 26.368C195.511 27.61 193.993 28.231 191.877 28.231H179.526V43.066C179.526 45.366 178.79 47.045 177.318 48.103C175.846 49.115 173.5 49.621 170.28 49.621V4.909ZM217.494 49C216.16 49 215.01 48.517 214.044 47.551C213.124 46.585 212.664 45.435 212.664 44.101V6.91C212.664 4.61 213.423 2.908 214.941 1.804C216.459 0.653997 218.782 0.0789965 221.91 0.0789965V40.996H240.54C242.702 40.996 244.335 41.686 245.439 43.066C246.543 44.4 247.095 46.378 247.095 49H217.494ZM267.623 49.621C263.851 49.621 260.401 48.885 257.273 47.413C254.145 45.895 251.661 43.848 249.821 41.272C248.027 38.696 247.13 35.89 247.13 32.854V16.777C247.13 13.741 248.027 10.958 249.821 8.428C251.661 5.852 254.145 3.828 257.273 2.356C260.401 0.837996 263.851 0.0789965 267.623 0.0789965C271.395 0.0789965 274.845 0.837996 277.973 2.356C281.147 3.828 283.631 5.852 285.425 8.428C287.265 10.958 288.185 13.741 288.185 16.777V32.854C288.185 35.89 287.265 38.696 285.425 41.272C283.631 43.848 281.147 45.895 277.973 47.413C274.845 48.885 271.395 49.621 267.623 49.621ZM267.623 41.548C271.073 41.548 273.833 40.743 275.903 39.133C277.973 37.477 279.008 35.338 279.008 32.716V16.984C279.008 14.316 277.973 12.177 275.903 10.567C273.833 8.911 271.073 8.083 267.623 8.083C264.219 8.083 261.482 8.911 259.412 10.567C257.342 12.177 256.307 14.316 256.307 16.984V32.716C256.307 35.338 257.342 37.477 259.412 39.133C261.482 40.743 264.219 41.548 267.623 41.548ZM308.838 49.621C306.538 49.621 304.629 49.115 303.111 48.103C301.639 47.045 300.65 45.55 300.144 43.618L289.311 1.114C290.415 0.423998 291.841 0.0789965 293.589 0.0789965C295.291 0.0789965 296.694 0.492997 297.798 1.321C298.902 2.103 299.638 3.23 300.006 4.702L305.802 30.853L304.422 36.166L305.043 36.373L314.427 3.184C314.703 2.218 315.186 1.459 315.876 0.906998C316.612 0.354997 317.486 0.0789965 318.498 0.0789965C319.51 0.0789965 320.384 0.354997 321.12 0.906998C321.856 1.459 322.362 2.218 322.638 3.184L330.159 31.474L328.848 37.063L329.607 37.27L337.059 4.702C337.381 3.23 338.071 2.103 339.129 1.321C340.233 0.492997 341.659 0.0789965 343.407 0.0789965C345.109 0.0789965 346.558 0.423998 347.754 1.114L336.852 43.618C336.346 45.55 335.334 47.045 333.816 48.103C332.344 49.115 330.458 49.621 328.158 49.621L317.67 11.257L317.049 11.464L318.153 15.535L308.838 49.621Z" fill="white"/>
</svg>
