<svg width="25" height="24" viewBox="0 0 25 24" fill="none" xmlns="http://www.w3.org/2000/svg">
<path fill-rule="evenodd" clip-rule="evenodd" d="M14.885 15.4461C13.5372 16.523 11.8281 17.0429 10.1089 16.8991C8.38969 16.7553 6.79078 15.9587 5.64058 14.6728C4.49038 13.3869 3.8762 11.7094 3.92418 9.98486C3.97217 8.2603 4.67868 6.61956 5.8986 5.39964C7.11853 4.17971 8.75926 3.47321 10.4838 3.42522C12.2084 3.37724 13.8859 3.99141 15.1717 5.14161C16.4576 6.29181 17.2543 7.89072 17.3981 9.60995C17.5419 11.3292 17.0219 13.0382 15.945 14.3861L21.101 19.5411C21.1747 19.6097 21.2338 19.6925 21.2748 19.7845C21.3158 19.8765 21.3378 19.9758 21.3396 20.0765C21.3414 20.1772 21.3229 20.2773 21.2851 20.3707C21.2474 20.464 21.1913 20.5489 21.1201 20.6201C21.0488 20.6913 20.964 20.7475 20.8706 20.7852C20.7772 20.8229 20.6772 20.8414 20.5765 20.8397C20.4758 20.8379 20.3765 20.8158 20.2845 20.7748C20.1925 20.7339 20.1097 20.6747 20.041 20.6011L14.885 15.4461ZM6.95903 13.8841C6.22507 13.15 5.72518 12.2149 5.52254 11.1968C5.3199 10.1788 5.4236 9.1235 5.82054 8.16436C6.21748 7.20523 6.88984 6.38529 7.75264 5.80817C8.61545 5.23104 9.62997 4.92265 10.668 4.92195C11.706 4.92125 12.721 5.22828 13.5845 5.80424C14.4481 6.3802 15.1216 7.19924 15.5198 8.15784C15.918 9.11644 16.0232 10.1716 15.8219 11.1899C15.6206 12.2082 15.122 13.144 14.389 13.8791L14.384 13.8841L14.379 13.8881C13.3941 14.8707 12.0595 15.4222 10.6682 15.4214C9.27694 15.4207 7.94287 14.8677 6.95903 13.8841Z" fill="white" fill-opacity="0.5"/>
</svg>
